<?xml version="1.0" encoding="UTF-8" standalone="no"?>
<svg
   xmlns:dc="http://purl.org/dc/elements/1.1/"
   xmlns:cc="http://creativecommons.org/ns#"
   xmlns:rdf="http://www.w3.org/1999/02/22-rdf-syntax-ns#"
   xmlns:svg="http://www.w3.org/2000/svg"
   xmlns="http://www.w3.org/2000/svg"
   xmlns:sodipodi="http://sodipodi.sourceforge.net/DTD/sodipodi-0.dtd"
   xmlns:inkscape="http://www.inkscape.org/namespaces/inkscape"
   width="30.000357"
   height="29.906107"
   viewBox="0 0 7.9375947 7.9126571"
   version="1.1"
   id="svg8"
   inkscape:version="1.0.2-2 (e86c870879, 2021-01-15)"
   sodipodi:docname="video_editing_front-image-tools.svg">
  <defs
     id="defs2" />
  <sodipodi:namedview
     id="base"
     pagecolor="#ffffff"
     bordercolor="#666666"
     borderopacity="1.0"
     inkscape:pageopacity="0.0"
     inkscape:pageshadow="2"
     inkscape:zoom="0.50367216"
     inkscape:cx="1263.5445"
     inkscape:cy="-59.240029"
     inkscape:document-units="px"
     inkscape:current-layer="layer1"
     inkscape:document-rotation="0"
     showgrid="true"
     units="px"
     inkscape:pagecheckerboard="false"
     inkscape:window-width="3840"
     inkscape:window-height="2066"
     inkscape:window-x="2869"
     inkscape:window-y="-11"
     inkscape:window-maximized="1">
    <inkscape:grid
       type="xygrid"
       id="grid833"
       dotted="false"
       originx="107.38066"
       originy="-206.49513"
       units="px"
       spacingx="5.2916667"
       spacingy="5.2916667"
       empspacing="6" />
  </sodipodi:namedview>
  <metadata
     id="metadata5">
    <rdf:RDF>
      <cc:Work
         rdf:about="">
        <dc:format>image/svg+xml</dc:format>
        <dc:type
           rdf:resource="http://purl.org/dc/dcmitype/StillImage" />
        <dc:title />
      </cc:Work>
    </rdf:RDF>
  </metadata>
  <g
     inkscape:label="background"
     inkscape:groupmode="layer"
     id="layer1"
     transform="translate(107.38064,-206.49515)">
    <path
       id="path4138"
       d="m -104.39163,206.49524 c -0.22505,-0.005 -0.44758,0.23927 -0.36083,0.46949 0.079,0.17527 -0.25017,0.26557 -0.3819,0.34792 -0.4651,0.17799 -0.77786,0.5791 -1.13207,0.90819 -0.30646,0.30998 -0.66464,0.59089 -0.83527,1.00573 -0.12122,0.27457 -0.17364,0.57531 -0.16823,0.86978 0.004,0.3237 0.0683,0.64411 0.16366,0.95262 0.007,-0.15405 -0.0506,-0.31722 -3.5e-4,-0.4751 0.0998,-0.46269 0.35721,-0.91804 0.76697,-1.17118 0.17991,-0.10939 0.41589,-0.12727 0.59919,-0.0157 0.0871,0.0278 0.17576,0.0207 0.2559,-0.0107 l 4.9316,4.9316 c 0.13078,0.13077 0.34134,0.13077 0.47212,0 l 0.306446,-0.30645 c 0.130777,-0.13078 0.130777,-0.34134 0,-0.47212 l -4.923826,-4.92388 c 0.0982,-0.15807 0.0446,-0.35225 0.0285,-0.52647 0.0334,-0.24938 0.27807,-0.37965 0.4506,-0.52994 0.0968,0.12073 0.25173,0.21522 0.40927,0.14921 0.24041,-0.0698 0.35676,-0.42236 0.14745,-0.58975 -0.19358,-0.18736 -0.37512,-0.38866 -0.57674,-0.56674 -0.0484,-0.031 -0.10049,-0.0454 -0.15242,-0.0466 z m 3.61587,0.24894 c -0.0167,2e-5 -0.0333,3.6e-4 -0.05,0.001 -0.58372,0.0223 -1.08484,0.42226 -1.23598,0.9865 -0.0617,0.23249 -0.0593,0.47736 0.007,0.70862 l -1.26675,1.26674 0.77858,0.7786 1.20298,-1.20307 c 0.0709,0.0334 0.14464,0.0604 0.22032,0.0808 0.71074,0.19044 1.441258,-0.23135 1.631751,-0.94206 0.02991,-0.11238 0.04497,-0.22819 0.04481,-0.34448 l -0.963671,0.55639 -0.66615,-1.15377 0.96265,-0.55577 c -0.10028,-0.0584 -0.20777,-0.10347 -0.31973,-0.13403 -0.11281,-0.0302 -0.22905,-0.0455 -0.3457,-0.0454 z m -3.59966,4.01666 -1.51647,1.51647 c -0.0338,-0.0131 -0.0683,-0.0247 -0.10327,-0.0344 -0.58738,-0.15737 -1.19114,0.19119 -1.34848,0.77857 -0.0247,0.0929 -0.0372,0.18859 -0.037,0.2847 l 0.7964,-0.45981 0.55052,0.95358 -0.7956,0.45932 c 0.0829,0.0482 0.17173,0.0855 0.26428,0.11075 0.58738,0.15738 1.19113,-0.1912 1.34848,-0.77858 0.0395,-0.14859 0.0475,-0.30382 0.0234,-0.45567 l 1.59637,-1.59638 -0.77856,-0.77856 z"
       style="stroke-width:0.282217" />
  </g>
</svg>
