<?xml version="1.0" encoding="UTF-8" standalone="no"?>
<svg
   xmlns:dc="http://purl.org/dc/elements/1.1/"
   xmlns:cc="http://creativecommons.org/ns#"
   xmlns:rdf="http://www.w3.org/1999/02/22-rdf-syntax-ns#"
   xmlns:svg="http://www.w3.org/2000/svg"
   xmlns="http://www.w3.org/2000/svg"
   xmlns:sodipodi="http://sodipodi.sourceforge.net/DTD/sodipodi-0.dtd"
   xmlns:inkscape="http://www.inkscape.org/namespaces/inkscape"
   id="svg2"
   height="403.71265mm"
   width="652.1604mm"
   version="1.1"
   viewBox="0 0 2310.8396 1430.4738"
   sodipodi:docname="video_editing_front-image.svg"
   inkscape:version="1.0.2-2 (e86c870879, 2021-01-15)">
  <metadata
     id="metadata9">
    <rdf:RDF>
      <cc:Work
         rdf:about="">
        <dc:format>image/svg+xml</dc:format>
        <dc:type
           rdf:resource="http://purl.org/dc/dcmitype/StillImage" />
        <dc:title></dc:title>
      </cc:Work>
    </rdf:RDF>
  </metadata>
  <defs
     id="defs7">
    <marker
       style="overflow:visible"
       id="marker1804"
       refX="0"
       refY="0"
       orient="auto"
       inkscape:stockid="Arrow1Send"
       inkscape:isstock="true">
      <path
         transform="matrix(-0.2,0,0,-0.2,-1.2,0)"
         style="fill:#ff0000;fill-opacity:1;fill-rule:evenodd;stroke:#ff0000;stroke-width:1pt;stroke-opacity:1"
         d="M 0,0 5,-5 -12.5,0 5,5 Z"
         id="path1802" />
    </marker>
    <marker
       style="overflow:visible"
       id="Arrow1Send"
       refX="0"
       refY="0"
       orient="auto"
       inkscape:stockid="Arrow1Send"
       inkscape:isstock="true">
      <path
         transform="matrix(-0.2,0,0,-0.2,-1.2,0)"
         style="fill:#ff0000;fill-opacity:1;fill-rule:evenodd;stroke:#ff0000;stroke-width:1pt;stroke-opacity:1"
         d="M 0,0 5,-5 -12.5,0 5,5 Z"
         id="path1055" />
    </marker>
    <marker
       style="overflow:visible"
       id="Arrow1Mend"
       refX="0"
       refY="0"
       orient="auto"
       inkscape:stockid="Arrow1Mend"
       inkscape:isstock="true">
      <path
         transform="matrix(-0.4,0,0,-0.4,-4,0)"
         style="fill:#ff0000;fill-opacity:1;fill-rule:evenodd;stroke:#ff0000;stroke-width:1pt;stroke-opacity:1"
         d="M 0,0 5,-5 -12.5,0 5,5 Z"
         id="path1049" />
    </marker>
    <marker
       style="overflow:visible"
       id="marker1414"
       refX="0"
       refY="0"
       orient="auto"
       inkscape:stockid="Arrow2Mend"
       inkscape:isstock="true">
      <path
         transform="scale(-0.6)"
         d="M 8.7185878,4.0337352 -2.2072895,0.01601326 8.7185884,-4.0017078 c -1.7454984,2.3720609 -1.7354408,5.6174519 -6e-7,8.035443 z"
         style="fill:#ff0000;fill-opacity:1;fill-rule:evenodd;stroke:#ff0000;stroke-width:0.625;stroke-linejoin:round;stroke-opacity:1"
         id="path1412" />
    </marker>
    <marker
       style="overflow:visible"
       id="Arrow2Lend"
       refX="0"
       refY="0"
       orient="auto"
       inkscape:stockid="Arrow2Lend"
       inkscape:isstock="true">
      <path
         transform="matrix(-1.1,0,0,-1.1,-1.1,0)"
         d="M 8.7185878,4.0337352 -2.2072895,0.01601326 8.7185884,-4.0017078 c -1.7454984,2.3720609 -1.7354408,5.6174519 -6e-7,8.035443 z"
         style="fill:#000000;fill-opacity:1;fill-rule:evenodd;stroke:#000000;stroke-width:0.625;stroke-linejoin:round;stroke-opacity:1"
         id="path1061" />
    </marker>
    <marker
       style="overflow:visible"
       id="Arrow1Lend"
       refX="0"
       refY="0"
       orient="auto"
       inkscape:stockid="Arrow1Lend"
       inkscape:isstock="true">
      <path
         transform="matrix(-0.8,0,0,-0.8,-10,0)"
         style="fill:#000000;fill-opacity:1;fill-rule:evenodd;stroke:#000000;stroke-width:1pt;stroke-opacity:1"
         d="M 0,0 5,-5 -12.5,0 5,5 Z"
         id="path1043" />
    </marker>
  </defs>
  <sodipodi:namedview
     pagecolor="#505050"
     bordercolor="#ffffff"
     borderopacity="1"
     objecttolerance="10"
     gridtolerance="10"
     guidetolerance="10"
     inkscape:pageopacity="0"
     inkscape:pageshadow="2"
     inkscape:window-width="3840"
     inkscape:window-height="2066"
     id="namedview5"
     showgrid="false"
     inkscape:zoom="0.36793163"
     inkscape:cx="2551.9483"
     inkscape:cy="869.30689"
     inkscape:window-x="2869"
     inkscape:window-y="-11"
     inkscape:window-maximized="1"
     inkscape:current-layer="svg2" />
  <text
     xml:space="preserve"
     style="font-size:106.323px;line-height:1;font-family:Arial;-inkscape-font-specification:Arial;letter-spacing:0px;word-spacing:0px;stroke-width:0.937513"
     x="1200.3245"
     y="77.380486"
     id="text971"><tspan
       sodipodi:role="line"
       id="tspan969"
       x="1200.3245"
       y="77.380486"
       style="text-align:center;text-anchor:middle;stroke-width:0.937513">Video Sequence Editor</tspan><tspan
       sodipodi:role="line"
       x="1200.3245"
       y="183.70348"
       style="text-align:center;text-anchor:middle;stroke-width:0.937513"
       id="tspan973">VSE</tspan></text>
  <path
     id="path4138"
     d="m 228.59103,603.53668 c -17.21063,-0.38872 -34.22852,18.29838 -27.59441,35.90423 6.04434,13.40442 -19.13197,20.31032 -29.20627,26.6082 -35.5686,13.61176 -59.48813,44.28703 -86.576063,69.45423 -23.43737,23.7067 -50.82991,45.1893 -63.87865,76.9146 -9.26988,20.998 -13.2791695,43.9976 -12.8650995,66.5174 0.31313,24.7556 5.2253195,49.25944 12.5154895,72.85314 0.55348,-11.7816 -3.86914,-24.2601 -0.0267,-36.33414 7.63005,-35.3844 27.31837,-70.2082 58.65515,-89.5675 13.7589,-8.3658 31.805553,-9.7332 45.823473,-1.1986 6.65843,2.1277 13.44212,1.5848 19.57097,-0.8161 L 522.158,1201.0213 c 10.00133,10.0013 26.10415,10.0013 36.10548,0 l 23.43615,-23.4362 c 10.00134,-10.0013 10.00134,-26.1041 0,-36.1054 L 205.14637,764.92024 c 7.50783,-12.088 3.41421,-26.9383 2.17914,-40.2625 2.55369,-19.07118 21.26552,-29.0342 34.46079,-40.52762 7.40508,9.2334 19.25054,16.45912 31.29908,11.41133 18.38533,-5.33623 27.28371,-32.30048 11.27574,-45.10175 -14.80348,-14.32922 -28.68702,-29.72309 -44.10643,-43.34215 -3.70375,-2.36915 -7.68477,-3.47502 -11.65636,-3.5647 z m 276.5278,19.03834 c -1.27442,6.1e-4 -2.54871,0.0253 -3.82379,0.074 -44.64026,1.70611 -82.96441,32.29259 -94.52289,75.4432 -4.72012,17.78032 -4.53826,36.50682 0.52625,54.19232 l -96.87593,96.8759 59.54224,59.5435 91.99967,-92.0057 c 5.42366,2.5515 11.06172,4.6194 16.84886,6.1799 54.35461,14.5645 110.22198,-17.6922 124.79016,-72.0444 2.28725,-8.5943 3.43933,-17.4514 3.42698,-26.3449 l -73.69818,42.5505 -50.94423,-88.23596 73.61914,-42.50308 c -7.66896,-4.46707 -15.8894,-7.91278 -24.45155,-10.25001 -8.6272,-2.31194 -17.51646,-3.47776 -26.43734,-3.47222 z M 229.8314,929.75318 113.85754,1045.7271 c -2.58774,-1.0069 -5.22375,-1.8851 -7.89819,-2.6314 -44.919963,-12.0358 -91.093653,14.6216 -103.1263825,59.5416 -1.89052003,7.1029 -2.84286003,14.4229 -2.832890026106,21.7726 L 60.905507,1089.2456 l 42.102383,72.926 -60.844623,35.1272 c 6.33922,3.6916 13.13325,6.5387 20.21061,8.4697 44.920563,12.0358 91.093653,-14.6228 103.126383,-59.5434 3.02344,-11.3633 3.63341,-23.2343 1.79056,-34.8475 l 122.08446,-122.08452 -59.54163,-59.5416 z"
     style="stroke-width:0.999999" />
  <g
     transform="matrix(4.3065836,0,0,4.3065836,569.89251,-277.58884)"
     id="g8602"
     style="stroke-width:0.822778">
    <rect
       ry="7.8464618"
       y="226.48997"
       x="303.34641"
       height="15.692924"
       width="35.869541"
       id="rect1712"
       style="opacity:1;vector-effect:none;fill:#000000;fill-opacity:1;fill-rule:nonzero;stroke:none;stroke-width:0.645924;stroke-linecap:round;stroke-linejoin:miter;stroke-miterlimit:4;stroke-dasharray:none;stroke-dashoffset:0;stroke-opacity:1;paint-order:stroke fill markers" />
    <rect
       ry="0"
       y="310.27805"
       x="236.52155"
       height="15.156644"
       width="39.53907"
       id="rect1718"
       style="opacity:1;vector-effect:none;fill:#000000;fill-opacity:1;fill-rule:nonzero;stroke:none;stroke-width:0.645924;stroke-linecap:round;stroke-linejoin:miter;stroke-miterlimit:4;stroke-dasharray:none;stroke-dashoffset:0;stroke-opacity:1;paint-order:stroke fill markers" />
    <rect
       transform="rotate(45)"
       y="-12.830115"
       x="441.53009"
       height="20.816843"
       width="20.816843"
       id="rect1724"
       style="opacity:1;vector-effect:none;fill:#000000;fill-opacity:1;fill-rule:nonzero;stroke:none;stroke-width:0.645924;stroke-linecap:round;stroke-linejoin:miter;stroke-miterlimit:4;stroke-dasharray:none;stroke-dashoffset:0;stroke-opacity:1;paint-order:stroke fill markers" />
    <rect
       style="opacity:1;vector-effect:none;fill:#000000;fill-opacity:1;fill-rule:nonzero;stroke:none;stroke-width:0.645924;stroke-linecap:round;stroke-linejoin:miter;stroke-miterlimit:4;stroke-dasharray:none;stroke-dashoffset:0;stroke-opacity:1;paint-order:stroke fill markers"
       id="rect1752"
       width="35.869541"
       height="15.692924"
       x="303.34641"
       y="348.36002"
       ry="7.8464618" />
    <rect
       ry="7.8464618"
       y="264.78656"
       x="368.3829"
       height="15.692924"
       width="35.869541"
       id="rect1760"
       style="opacity:1;vector-effect:none;fill:#000000;fill-opacity:1;fill-rule:nonzero;stroke:none;stroke-width:0.645924;stroke-linecap:round;stroke-linejoin:miter;stroke-miterlimit:4;stroke-dasharray:none;stroke-dashoffset:0;stroke-opacity:1;paint-order:stroke fill markers" />
    <rect
       style="opacity:1;vector-effect:none;fill:#000000;fill-opacity:1;fill-rule:nonzero;stroke:none;stroke-width:0.645924;stroke-linecap:round;stroke-linejoin:miter;stroke-miterlimit:4;stroke-dasharray:none;stroke-dashoffset:0;stroke-opacity:1;paint-order:stroke fill markers"
       id="rect1766"
       width="20.816843"
       height="20.816843"
       x="409.55234"
       y="-44.807854"
       transform="rotate(45)" />
    <path
       id="path1772"
       d="m 321.26758,241.80273 a 0.52921956,0.52921956 0 0 0 -0.52149,0.53516 v 15.06836 a 0.5293,0.5293 0 1 0 1.0586,0 v -15.06836 a 0.52921956,0.52921956 0 0 0 -0.53711,-0.53516 z"
       style="color:#000000;font-style:normal;font-variant:normal;font-weight:normal;font-stretch:normal;font-size:medium;line-height:normal;font-family:sans-serif;font-variant-ligatures:normal;font-variant-position:normal;font-variant-caps:normal;font-variant-numeric:normal;font-variant-alternates:normal;font-feature-settings:normal;text-indent:0;text-align:start;text-decoration:none;text-decoration-line:none;text-decoration-style:solid;text-decoration-color:#000000;letter-spacing:normal;word-spacing:normal;text-transform:none;writing-mode:lr-tb;direction:ltr;text-orientation:mixed;dominant-baseline:auto;baseline-shift:baseline;text-anchor:start;white-space:normal;shape-padding:0;clip-rule:nonzero;display:inline;overflow:visible;visibility:visible;opacity:1;isolation:auto;mix-blend-mode:normal;color-interpolation:sRGB;color-interpolation-filters:linearRGB;solid-color:#000000;solid-opacity:1;vector-effect:none;fill:#000000;fill-opacity:1;fill-rule:nonzero;stroke:none;stroke-width:0.87077;stroke-linecap:round;stroke-linejoin:miter;stroke-miterlimit:4;stroke-dasharray:none;stroke-dashoffset:0;stroke-opacity:1;paint-order:stroke fill markers;color-rendering:auto;image-rendering:auto;shape-rendering:auto;text-rendering:auto;enable-background:accumulate" />
    <path
       d="m 323.83606,251.86903 -2.55125,6.93793 -2.55125,-6.93793 c 1.50625,1.10839 3.56708,1.102 5.1025,0 z"
       style="fill:#000000;fill-opacity:1;fill-rule:evenodd;stroke:none;stroke-width:0.32654;stroke-linejoin:round;stroke-opacity:1"
       id="path8569" />
    <path
       id="path1776"
       d="m 321.26702,286.92905 a 0.52921956,0.52921956 0 0 0 -0.52148,0.5371 v 15.06641 a 0.529295,0.529295 0 1 0 1.05859,0 v -15.06641 a 0.52921956,0.52921956 0 0 0 -0.53711,-0.5371 z"
       style="color:#000000;font-style:normal;font-variant:normal;font-weight:normal;font-stretch:normal;font-size:medium;line-height:normal;font-family:sans-serif;font-variant-ligatures:normal;font-variant-position:normal;font-variant-caps:normal;font-variant-numeric:normal;font-variant-alternates:normal;font-feature-settings:normal;text-indent:0;text-align:start;text-decoration:none;text-decoration-line:none;text-decoration-style:solid;text-decoration-color:#000000;letter-spacing:normal;word-spacing:normal;text-transform:none;writing-mode:lr-tb;direction:ltr;text-orientation:mixed;dominant-baseline:auto;baseline-shift:baseline;text-anchor:start;white-space:normal;shape-padding:0;clip-rule:nonzero;display:inline;overflow:visible;visibility:visible;opacity:1;isolation:auto;mix-blend-mode:normal;color-interpolation:sRGB;color-interpolation-filters:linearRGB;solid-color:#000000;solid-opacity:1;vector-effect:none;fill:#000000;fill-opacity:1;fill-rule:nonzero;stroke:none;stroke-width:0.87077;stroke-linecap:round;stroke-linejoin:miter;stroke-miterlimit:4;stroke-dasharray:none;stroke-dashoffset:0;stroke-opacity:1;paint-order:stroke fill markers;color-rendering:auto;image-rendering:auto;shape-rendering:auto;text-rendering:auto;enable-background:accumulate" />
    <path
       id="path8291"
       style="fill:#000000;fill-opacity:1;fill-rule:evenodd;stroke:none;stroke-width:0.32654;stroke-linejoin:round;stroke-opacity:1"
       d="m 323.83606,296.99702 -2.55125,6.93793 -2.55125,-6.93793 c 1.50625,1.10839 3.56708,1.102 5.1025,0 z" />
    <path
       id="path1778"
       d="m 321.26702,332.2103 a 0.52921956,0.52921956 0 0 0 -0.52148,0.53711 v 15.0664 a 0.529295,0.529295 0 1 0 1.05859,0 v -15.0664 a 0.52921956,0.52921956 0 0 0 -0.53711,-0.53711 z"
       style="color:#000000;font-style:normal;font-variant:normal;font-weight:normal;font-stretch:normal;font-size:medium;line-height:normal;font-family:sans-serif;font-variant-ligatures:normal;font-variant-position:normal;font-variant-caps:normal;font-variant-numeric:normal;font-variant-alternates:normal;font-feature-settings:normal;text-indent:0;text-align:start;text-decoration:none;text-decoration-line:none;text-decoration-style:solid;text-decoration-color:#000000;letter-spacing:normal;word-spacing:normal;text-transform:none;writing-mode:lr-tb;direction:ltr;text-orientation:mixed;dominant-baseline:auto;baseline-shift:baseline;text-anchor:start;white-space:normal;shape-padding:0;clip-rule:nonzero;display:inline;overflow:visible;visibility:visible;opacity:1;isolation:auto;mix-blend-mode:normal;color-interpolation:sRGB;color-interpolation-filters:linearRGB;solid-color:#000000;solid-opacity:1;vector-effect:none;fill:#000000;fill-opacity:1;fill-rule:nonzero;stroke:none;stroke-width:0.87077;stroke-linecap:round;stroke-linejoin:miter;stroke-miterlimit:4;stroke-dasharray:none;stroke-dashoffset:0;stroke-opacity:1;paint-order:stroke fill markers;color-rendering:auto;image-rendering:auto;shape-rendering:auto;text-rendering:auto;enable-background:accumulate" />
    <path
       d="m 323.83606,342.27771 -2.55125,6.93793 -2.55125,-6.93793 c 1.50625,1.10839 3.56708,1.102 5.1025,0 z"
       style="fill:#000000;fill-opacity:1;fill-rule:evenodd;stroke:none;stroke-width:0.32654;stroke-linejoin:round;stroke-opacity:1"
       id="path8017" />
    <path
       id="path1780"
       d="m 276.71624,317.33334 a 0.5293,0.5293 0 1 0 0,1.0586 h 29.95703 a 0.5293,0.5293 0 1 0 0,-1.0586 z"
       style="color:#000000;font-style:normal;font-variant:normal;font-weight:normal;font-stretch:normal;font-size:medium;line-height:normal;font-family:sans-serif;font-variant-ligatures:normal;font-variant-position:normal;font-variant-caps:normal;font-variant-numeric:normal;font-variant-alternates:normal;font-feature-settings:normal;text-indent:0;text-align:start;text-decoration:none;text-decoration-line:none;text-decoration-style:solid;text-decoration-color:#000000;letter-spacing:normal;word-spacing:normal;text-transform:none;writing-mode:lr-tb;direction:ltr;text-orientation:mixed;dominant-baseline:auto;baseline-shift:baseline;text-anchor:start;white-space:normal;shape-padding:0;clip-rule:nonzero;display:inline;overflow:visible;visibility:visible;opacity:1;isolation:auto;mix-blend-mode:normal;color-interpolation:sRGB;color-interpolation-filters:linearRGB;solid-color:#000000;solid-opacity:1;vector-effect:none;fill:#000000;fill-opacity:1;fill-rule:nonzero;stroke:none;stroke-width:0.87077;stroke-linecap:round;stroke-linejoin:miter;stroke-miterlimit:4;stroke-dasharray:none;stroke-dashoffset:0;stroke-opacity:1;paint-order:stroke fill markers;color-rendering:auto;image-rendering:auto;shape-rendering:auto;text-rendering:auto;enable-background:accumulate" />
    <path
       id="path7751"
       style="fill:#000000;fill-opacity:1;fill-rule:evenodd;stroke:none;stroke-width:0.32654;stroke-linejoin:round;stroke-opacity:1"
       d="m 282.25181,320.42434 -6.93793,-2.55125 6.93793,-2.55125 c -1.10839,1.50625 -1.102,3.56708 0,5.1025 z" />
    <path
       style="color:#000000;font-style:normal;font-variant:normal;font-weight:normal;font-stretch:normal;font-size:medium;line-height:normal;font-family:sans-serif;font-variant-ligatures:normal;font-variant-position:normal;font-variant-caps:normal;font-variant-numeric:normal;font-variant-alternates:normal;font-feature-settings:normal;text-indent:0;text-align:start;text-decoration:none;text-decoration-line:none;text-decoration-style:solid;text-decoration-color:#000000;letter-spacing:normal;word-spacing:normal;text-transform:none;writing-mode:lr-tb;direction:ltr;text-orientation:mixed;dominant-baseline:auto;baseline-shift:baseline;text-anchor:start;white-space:normal;shape-padding:0;clip-rule:nonzero;display:inline;overflow:visible;visibility:visible;opacity:1;isolation:auto;mix-blend-mode:normal;color-interpolation:sRGB;color-interpolation-filters:linearRGB;solid-color:#000000;solid-opacity:1;vector-effect:none;fill:#000000;fill-opacity:1;fill-rule:nonzero;stroke:none;stroke-width:0.87077;stroke-linecap:round;stroke-linejoin:miter;stroke-miterlimit:4;stroke-dasharray:none;stroke-dashoffset:0;stroke-opacity:1;paint-order:stroke fill markers;color-rendering:auto;image-rendering:auto;shape-rendering:auto;text-rendering:auto;enable-background:accumulate"
       d="m 256.29046,272.20639 a 0.52921956,0.52921956 0 0 0 -0.52148,0.53711 v 37.55469 a 0.529295,0.529295 0 1 0 1.05859,0 V 272.7435 a 0.52921956,0.52921956 0 0 0 -0.53711,-0.53711 z"
       id="path1784" />
    <path
       id="path1787"
       d="m 335.92718,272.11069 a 0.52921956,0.52921956 0 1 0 0,1.05664 h 31.95117 a 0.52921956,0.52921956 0 1 0 0,-1.05664 z"
       style="color:#000000;font-style:normal;font-variant:normal;font-weight:normal;font-stretch:normal;font-size:medium;line-height:normal;font-family:sans-serif;font-variant-ligatures:normal;font-variant-position:normal;font-variant-caps:normal;font-variant-numeric:normal;font-variant-alternates:normal;font-feature-settings:normal;text-indent:0;text-align:start;text-decoration:none;text-decoration-line:none;text-decoration-style:solid;text-decoration-color:#000000;letter-spacing:normal;word-spacing:normal;text-transform:none;writing-mode:lr-tb;direction:ltr;text-orientation:mixed;dominant-baseline:auto;baseline-shift:baseline;text-anchor:start;white-space:normal;shape-padding:0;clip-rule:nonzero;display:inline;overflow:visible;visibility:visible;opacity:1;isolation:auto;mix-blend-mode:normal;color-interpolation:sRGB;color-interpolation-filters:linearRGB;solid-color:#000000;solid-opacity:1;vector-effect:none;fill:#000000;fill-opacity:1;fill-rule:nonzero;stroke:none;stroke-width:0.87077;stroke-linecap:round;stroke-linejoin:miter;stroke-miterlimit:4;stroke-dasharray:none;stroke-dashoffset:0;stroke-opacity:1;paint-order:stroke fill markers;color-rendering:auto;image-rendering:auto;shape-rendering:auto;text-rendering:auto;enable-background:accumulate" />
    <path
       d="m 362.34295,270.07756 6.93793,2.55125 -6.93793,2.55125 c 1.10839,-1.50625 1.102,-3.56708 0,-5.1025 z"
       style="fill:#000000;fill-opacity:1;fill-rule:evenodd;stroke:none;stroke-width:0.32654;stroke-linejoin:round;stroke-opacity:1"
       id="path8003" />
    <path
       id="path2829"
       d="m 256.3178,272.11069 a 0.529295,0.529295 0 1 0 0,1.05859 h 50.24415 a 0.529295,0.529295 0 1 0 0,-1.05859 z"
       style="color:#000000;font-style:normal;font-variant:normal;font-weight:normal;font-stretch:normal;font-size:medium;line-height:normal;font-family:sans-serif;font-variant-ligatures:normal;font-variant-position:normal;font-variant-caps:normal;font-variant-numeric:normal;font-variant-alternates:normal;font-feature-settings:normal;text-indent:0;text-align:start;text-decoration:none;text-decoration-line:none;text-decoration-style:solid;text-decoration-color:#000000;letter-spacing:normal;word-spacing:normal;text-transform:none;writing-mode:lr-tb;direction:ltr;text-orientation:mixed;dominant-baseline:auto;baseline-shift:baseline;text-anchor:start;white-space:normal;shape-padding:0;clip-rule:nonzero;display:inline;overflow:visible;visibility:visible;opacity:1;isolation:auto;mix-blend-mode:normal;color-interpolation:sRGB;color-interpolation-filters:linearRGB;solid-color:#000000;solid-opacity:1;vector-effect:none;fill:#000000;fill-opacity:1;fill-rule:nonzero;stroke:none;stroke-width:0.87077;stroke-linecap:round;stroke-linejoin:miter;stroke-miterlimit:4;stroke-dasharray:none;stroke-dashoffset:0;stroke-opacity:1;paint-order:stroke fill markers;color-rendering:auto;image-rendering:auto;shape-rendering:auto;text-rendering:auto;enable-background:accumulate" />
    <path
       d="m 301.02513,270.07909 6.93793,2.55125 -6.93793,2.55125 c 1.10839,-1.50625 1.102,-3.56708 0,-5.1025 z"
       style="fill:#000000;fill-opacity:1;fill-rule:evenodd;stroke:none;stroke-width:0.32654;stroke-linejoin:round;stroke-opacity:1"
       id="path7989" />
  </g>
  <text
     xml:space="preserve"
     style="font-size:106.323px;line-height:1;font-family:Arial;-inkscape-font-specification:Arial;letter-spacing:0px;word-spacing:0px;stroke-width:0.937513"
     x="302.55487"
     y="1418.2905"
     id="text971-0"><tspan
       sodipodi:role="line"
       x="302.55487"
       y="1418.2905"
       style="text-align:center;text-anchor:middle;stroke-width:0.937513"
       id="tspan973-2">Video Editor</tspan></text>
  <text
     xml:space="preserve"
     style="font-size:106.323px;line-height:1;font-family:Arial;-inkscape-font-specification:Arial;letter-spacing:0px;word-spacing:0px;stroke-width:0.937513"
     x="1952.9884"
     y="1408.0984"
     id="text1007"><tspan
       sodipodi:role="line"
       x="1952.9884"
       y="1408.0984"
       style="text-align:center;text-anchor:middle;stroke-width:0.937513"
       id="tspan1005">Video Editing</tspan></text>
  <path
     style="fill:none;stroke:#ff0000;stroke-width:28.1254;stroke-linecap:butt;stroke-linejoin:miter;stroke-miterlimit:4;stroke-dasharray:225.003, 28.1254;stroke-dashoffset:0;stroke-opacity:1;marker-end:url(#Arrow1Send)"
     d="m 1161.5498,300.50878 v 103.3974 H 343.38667 v 199.90163"
     id="path1038"
     sodipodi:nodetypes="cccc" />
  <path
     style="fill:none;stroke:#ff0000;stroke-width:28.1254;stroke-linecap:butt;stroke-linejoin:miter;stroke-miterlimit:4;stroke-dasharray:225.003, 28.1254;stroke-dashoffset:0;stroke-opacity:1;marker-end:url(#marker1804)"
     d="m 1161.5498,241.90325 0,162.00293 h 818.1632 v 199.90163"
     id="path1410"
     sodipodi:nodetypes="cccc" />
</svg>
