<?xml version="1.0" encoding="UTF-8" standalone="no"?>
<svg
   xmlns:dc="http://purl.org/dc/elements/1.1/"
   xmlns:cc="http://creativecommons.org/ns#"
   xmlns:rdf="http://www.w3.org/1999/02/22-rdf-syntax-ns#"
   xmlns:svg="http://www.w3.org/2000/svg"
   xmlns="http://www.w3.org/2000/svg"
   xmlns:sodipodi="http://sodipodi.sourceforge.net/DTD/sodipodi-0.dtd"
   xmlns:inkscape="http://www.inkscape.org/namespaces/inkscape"
   id="svg2"
   height="403.71265mm"
   width="652.1604mm"
   version="1.1"
   viewBox="0 0 2310.8396 1430.4738"
   sodipodi:docname="video_editing_front-image.svg"
   inkscape:version="1.0.2-2 (e86c870879, 2021-01-15)">
  <metadata
     id="metadata9">
    <rdf:RDF>
      <cc:Work
         rdf:about="">
        <dc:format>image/svg+xml</dc:format>
        <dc:type
           rdf:resource="http://purl.org/dc/dcmitype/StillImage" />
        <dc:title />
      </cc:Work>
    </rdf:RDF>
  </metadata>
  <defs
     id="defs7">
    <marker
       style="overflow:visible"
       id="marker1804"
       refX="0"
       refY="0"
       orient="auto"
       inkscape:stockid="Arrow1Send"
       inkscape:isstock="true">
      <path
         transform="matrix(-0.2,0,0,-0.2,-1.2,0)"
         style="fill:#ff0000;fill-opacity:1;fill-rule:evenodd;stroke:#ff0000;stroke-width:1pt;stroke-opacity:1"
         d="M 0,0 5,-5 -12.5,0 5,5 Z"
         id="path1802" />
    </marker>
    <marker
       style="overflow:visible"
       id="Arrow1Send"
       refX="0"
       refY="0"
       orient="auto"
       inkscape:stockid="Arrow1Send"
       inkscape:isstock="true">
      <path
         transform="matrix(-0.2,0,0,-0.2,-1.2,0)"
         style="fill:#ff0000;fill-opacity:1;fill-rule:evenodd;stroke:#ff0000;stroke-width:1pt;stroke-opacity:1"
         d="M 0,0 5,-5 -12.5,0 5,5 Z"
         id="path1055" />
    </marker>
    <marker
       style="overflow:visible"
       id="Arrow1Mend"
       refX="0"
       refY="0"
       orient="auto"
       inkscape:stockid="Arrow1Mend"
       inkscape:isstock="true">
      <path
         transform="matrix(-0.4,0,0,-0.4,-4,0)"
         style="fill:#ff0000;fill-opacity:1;fill-rule:evenodd;stroke:#ff0000;stroke-width:1pt;stroke-opacity:1"
         d="M 0,0 5,-5 -12.5,0 5,5 Z"
         id="path1049" />
    </marker>
    <marker
       style="overflow:visible"
       id="marker1414"
       refX="0"
       refY="0"
       orient="auto"
       inkscape:stockid="Arrow2Mend"
       inkscape:isstock="true">
      <path
         transform="scale(-0.6)"
         d="M 8.7185878,4.0337352 -2.2072895,0.01601326 8.7185884,-4.0017078 c -1.7454984,2.3720609 -1.7354408,5.6174519 -6e-7,8.035443 z"
         style="fill:#ff0000;fill-opacity:1;fill-rule:evenodd;stroke:#ff0000;stroke-width:0.625;stroke-linejoin:round;stroke-opacity:1"
         id="path1412" />
    </marker>
    <marker
       style="overflow:visible"
       id="Arrow2Lend"
       refX="0"
       refY="0"
       orient="auto"
       inkscape:stockid="Arrow2Lend"
       inkscape:isstock="true">
      <path
         transform="matrix(-1.1,0,0,-1.1,-1.1,0)"
         d="M 8.7185878,4.0337352 -2.2072895,0.01601326 8.7185884,-4.0017078 c -1.7454984,2.3720609 -1.7354408,5.6174519 -6e-7,8.035443 z"
         style="fill:#000000;fill-opacity:1;fill-rule:evenodd;stroke:#000000;stroke-width:0.625;stroke-linejoin:round;stroke-opacity:1"
         id="path1061" />
    </marker>
    <marker
       style="overflow:visible"
       id="Arrow1Lend"
       refX="0"
       refY="0"
       orient="auto"
       inkscape:stockid="Arrow1Lend"
       inkscape:isstock="true">
      <path
         transform="matrix(-0.8,0,0,-0.8,-10,0)"
         style="fill:#000000;fill-opacity:1;fill-rule:evenodd;stroke:#000000;stroke-width:1pt;stroke-opacity:1"
         d="M 0,0 5,-5 -12.5,0 5,5 Z"
         id="path1043" />
    </marker>
  </defs>
  <sodipodi:namedview
     pagecolor="#505050"
     bordercolor="#ffffff"
     borderopacity="1"
     objecttolerance="10"
     gridtolerance="10"
     guidetolerance="10"
     inkscape:pageopacity="0"
     inkscape:pageshadow="2"
     inkscape:window-width="3840"
     inkscape:window-height="2066"
     id="namedview5"
     showgrid="false"
     inkscape:zoom="0.62097081"
     inkscape:cx="292.18129"
     inkscape:cy="410.50698"
     inkscape:window-x="2869"
     inkscape:window-y="-11"
     inkscape:window-maximized="1"
     inkscape:current-layer="svg2"
     inkscape:document-rotation="0" />
  <text
     xml:space="preserve"
     style="font-size:106.323px;line-height:1;font-family:Arial;-inkscape-font-specification:Arial;letter-spacing:0px;word-spacing:0px;stroke-width:0.937513"
     x="1200.3245"
     y="77.380486"
     id="text971"><tspan
       sodipodi:role="line"
       id="tspan969"
       x="1200.3245"
       y="77.380486"
       style="text-align:center;text-anchor:middle;stroke-width:0.937513">Video Sequence Editor</tspan><tspan
       sodipodi:role="line"
       x="1200.3245"
       y="183.70348"
       style="text-align:center;text-anchor:middle;stroke-width:0.937513"
       id="tspan973">VSE</tspan></text>
  <path
     id="path4138"
     d="m 276.89431,769.17902 c -12.78994,-0.28887 -25.43663,13.59829 -20.50656,26.68194 4.49181,9.96138 -14.21776,15.09344 -21.70439,19.77365 -26.43251,10.11548 -44.20811,32.91154 -64.33828,51.61434 -17.41729,17.61743 -37.77383,33.58205 -47.47089,57.15844 -6.88884,15.60449 -9.86831,32.69645 -9.56059,49.43186 0.2327,18.39688 3.88315,36.60675 9.30078,54.14015 0.41132,-8.7554 -2.87532,-18.0287 -0.0198,-27.0014 5.67021,-26.29558 20.30143,-52.1746 43.58909,-66.56131 10.22481,-6.21696 23.63603,-7.23314 34.05333,-0.89072 4.94817,1.58118 9.98941,1.17773 14.54401,-0.60648 l 280.27518,280.27531 c 7.4324,7.4324 19.39908,7.4324 26.83148,0 l 17.41638,-17.4164 c 7.43242,-7.4324 7.43242,-19.3991 0,-26.8315 L 259.47161,889.10987 c 5.57938,-8.98309 2.53724,-20.01897 1.6194,-29.92074 1.89776,-14.17259 15.8033,-21.57652 25.60926,-30.11776 5.50302,6.86172 14.30588,12.23145 23.25965,8.48023 13.6629,-3.96557 20.27566,-24.00382 8.37947,-33.51698 -11.00108,-10.64865 -21.31852,-22.08848 -32.77733,-32.20936 -2.75241,-1.76062 -5.71087,-2.58244 -8.66232,-2.64908 z m 205.49934,14.14819 c -0.94707,4.5e-4 -1.89406,0.0188 -2.84162,0.055 -33.17404,1.26788 -61.65432,23.99797 -70.2439,56.06498 -3.50772,13.2133 -3.37257,27.12974 0.39108,40.27257 l -71.99254,71.99252 44.24832,44.24925 68.36878,-68.37326 c 4.03055,1.89613 8.22043,3.43287 12.5211,4.59255 40.39317,10.82348 81.91055,-13.14782 92.73677,-53.5392 1.69975,-6.38679 2.5559,-12.96887 2.54673,-19.578 l -54.76819,31.62105 -37.85879,-65.57182 54.70946,-31.58581 c -5.69912,-3.31967 -11.80808,-5.88031 -18.17097,-7.61721 -6.41123,-1.7181 -13.01721,-2.58446 -19.64669,-2.58035 z m -204.57757,228.27689 -86.18501,86.1851 c -1.92305,-0.7483 -3.88198,-1.401 -5.86948,-1.9556 -33.38189,-8.9442 -67.69549,10.8659 -76.63751,44.2479 -1.40492,5.2785 -2.11264,10.7183 -2.10524,16.1802 l 45.26137,-26.1321 31.28804,54.1943 -45.21618,26.1045 c 4.71094,2.7434 9.75987,4.8592 15.01935,6.2942 33.38234,8.9443 67.69549,-10.8668 76.63751,-44.2492 2.24685,-8.4445 2.70013,-17.2664 1.33064,-25.8966 l 90.72605,-90.7261 -44.24787,-44.2479 z"
     style="stroke-width:0.999998" />
  <g
     transform="matrix(4.3065836,0,0,4.3065836,520.07057,-277.58884)"
     id="g8602"
     style="stroke-width:0.822778">
    <rect
       ry="7.8464618"
       y="226.48997"
       x="303.34641"
       height="15.692924"
       width="35.869541"
       id="rect1712"
       style="opacity:1;vector-effect:none;fill:#000000;fill-opacity:1;fill-rule:nonzero;stroke:none;stroke-width:0.645924;stroke-linecap:round;stroke-linejoin:miter;stroke-miterlimit:4;stroke-dasharray:none;stroke-dashoffset:0;stroke-opacity:1;paint-order:stroke fill markers" />
    <rect
       ry="0"
       y="310.27805"
       x="236.52155"
       height="15.156644"
       width="39.53907"
       id="rect1718"
       style="opacity:1;vector-effect:none;fill:#000000;fill-opacity:1;fill-rule:nonzero;stroke:none;stroke-width:0.645924;stroke-linecap:round;stroke-linejoin:miter;stroke-miterlimit:4;stroke-dasharray:none;stroke-dashoffset:0;stroke-opacity:1;paint-order:stroke fill markers" />
    <rect
       transform="rotate(45)"
       y="-12.830115"
       x="441.53009"
       height="20.816843"
       width="20.816843"
       id="rect1724"
       style="opacity:1;vector-effect:none;fill:#000000;fill-opacity:1;fill-rule:nonzero;stroke:none;stroke-width:0.645924;stroke-linecap:round;stroke-linejoin:miter;stroke-miterlimit:4;stroke-dasharray:none;stroke-dashoffset:0;stroke-opacity:1;paint-order:stroke fill markers" />
    <rect
       style="opacity:1;vector-effect:none;fill:#000000;fill-opacity:1;fill-rule:nonzero;stroke:none;stroke-width:0.645924;stroke-linecap:round;stroke-linejoin:miter;stroke-miterlimit:4;stroke-dasharray:none;stroke-dashoffset:0;stroke-opacity:1;paint-order:stroke fill markers"
       id="rect1752"
       width="35.869541"
       height="15.692924"
       x="303.34641"
       y="348.36002"
       ry="7.8464618" />
    <rect
       ry="7.8464618"
       y="264.78656"
       x="368.3829"
       height="15.692924"
       width="35.869541"
       id="rect1760"
       style="opacity:1;vector-effect:none;fill:#000000;fill-opacity:1;fill-rule:nonzero;stroke:none;stroke-width:0.645924;stroke-linecap:round;stroke-linejoin:miter;stroke-miterlimit:4;stroke-dasharray:none;stroke-dashoffset:0;stroke-opacity:1;paint-order:stroke fill markers" />
    <rect
       style="opacity:1;vector-effect:none;fill:#000000;fill-opacity:1;fill-rule:nonzero;stroke:none;stroke-width:0.645924;stroke-linecap:round;stroke-linejoin:miter;stroke-miterlimit:4;stroke-dasharray:none;stroke-dashoffset:0;stroke-opacity:1;paint-order:stroke fill markers"
       id="rect1766"
       width="20.816843"
       height="20.816843"
       x="409.55234"
       y="-44.807854"
       transform="rotate(45)" />
    <path
       id="path1772"
       d="m 321.26758,241.80273 a 0.52921956,0.52921956 0 0 0 -0.52149,0.53516 v 15.06836 a 0.5293,0.5293 0 1 0 1.0586,0 v -15.06836 a 0.52921956,0.52921956 0 0 0 -0.53711,-0.53516 z"
       style="color:#000000;font-style:normal;font-variant:normal;font-weight:normal;font-stretch:normal;font-size:medium;line-height:normal;font-family:sans-serif;font-variant-ligatures:normal;font-variant-position:normal;font-variant-caps:normal;font-variant-numeric:normal;font-variant-alternates:normal;font-feature-settings:normal;text-indent:0;text-align:start;text-decoration:none;text-decoration-line:none;text-decoration-style:solid;text-decoration-color:#000000;letter-spacing:normal;word-spacing:normal;text-transform:none;writing-mode:lr-tb;direction:ltr;text-orientation:mixed;dominant-baseline:auto;baseline-shift:baseline;text-anchor:start;white-space:normal;shape-padding:0;clip-rule:nonzero;display:inline;overflow:visible;visibility:visible;opacity:1;isolation:auto;mix-blend-mode:normal;color-interpolation:sRGB;color-interpolation-filters:linearRGB;solid-color:#000000;solid-opacity:1;vector-effect:none;fill:#000000;fill-opacity:1;fill-rule:nonzero;stroke:none;stroke-width:0.87077;stroke-linecap:round;stroke-linejoin:miter;stroke-miterlimit:4;stroke-dasharray:none;stroke-dashoffset:0;stroke-opacity:1;paint-order:stroke fill markers;color-rendering:auto;image-rendering:auto;shape-rendering:auto;text-rendering:auto;enable-background:accumulate" />
    <path
       d="m 323.83606,251.86903 -2.55125,6.93793 -2.55125,-6.93793 c 1.50625,1.10839 3.56708,1.102 5.1025,0 z"
       style="fill:#000000;fill-opacity:1;fill-rule:evenodd;stroke:none;stroke-width:0.32654;stroke-linejoin:round;stroke-opacity:1"
       id="path8569" />
    <path
       id="path1776"
       d="m 321.26702,286.92905 a 0.52921956,0.52921956 0 0 0 -0.52148,0.5371 v 15.06641 a 0.529295,0.529295 0 1 0 1.05859,0 v -15.06641 a 0.52921956,0.52921956 0 0 0 -0.53711,-0.5371 z"
       style="color:#000000;font-style:normal;font-variant:normal;font-weight:normal;font-stretch:normal;font-size:medium;line-height:normal;font-family:sans-serif;font-variant-ligatures:normal;font-variant-position:normal;font-variant-caps:normal;font-variant-numeric:normal;font-variant-alternates:normal;font-feature-settings:normal;text-indent:0;text-align:start;text-decoration:none;text-decoration-line:none;text-decoration-style:solid;text-decoration-color:#000000;letter-spacing:normal;word-spacing:normal;text-transform:none;writing-mode:lr-tb;direction:ltr;text-orientation:mixed;dominant-baseline:auto;baseline-shift:baseline;text-anchor:start;white-space:normal;shape-padding:0;clip-rule:nonzero;display:inline;overflow:visible;visibility:visible;opacity:1;isolation:auto;mix-blend-mode:normal;color-interpolation:sRGB;color-interpolation-filters:linearRGB;solid-color:#000000;solid-opacity:1;vector-effect:none;fill:#000000;fill-opacity:1;fill-rule:nonzero;stroke:none;stroke-width:0.87077;stroke-linecap:round;stroke-linejoin:miter;stroke-miterlimit:4;stroke-dasharray:none;stroke-dashoffset:0;stroke-opacity:1;paint-order:stroke fill markers;color-rendering:auto;image-rendering:auto;shape-rendering:auto;text-rendering:auto;enable-background:accumulate" />
    <path
       id="path8291"
       style="fill:#000000;fill-opacity:1;fill-rule:evenodd;stroke:none;stroke-width:0.32654;stroke-linejoin:round;stroke-opacity:1"
       d="m 323.83606,296.99702 -2.55125,6.93793 -2.55125,-6.93793 c 1.50625,1.10839 3.56708,1.102 5.1025,0 z" />
    <path
       id="path1778"
       d="m 321.26702,332.2103 a 0.52921956,0.52921956 0 0 0 -0.52148,0.53711 v 15.0664 a 0.529295,0.529295 0 1 0 1.05859,0 v -15.0664 a 0.52921956,0.52921956 0 0 0 -0.53711,-0.53711 z"
       style="color:#000000;font-style:normal;font-variant:normal;font-weight:normal;font-stretch:normal;font-size:medium;line-height:normal;font-family:sans-serif;font-variant-ligatures:normal;font-variant-position:normal;font-variant-caps:normal;font-variant-numeric:normal;font-variant-alternates:normal;font-feature-settings:normal;text-indent:0;text-align:start;text-decoration:none;text-decoration-line:none;text-decoration-style:solid;text-decoration-color:#000000;letter-spacing:normal;word-spacing:normal;text-transform:none;writing-mode:lr-tb;direction:ltr;text-orientation:mixed;dominant-baseline:auto;baseline-shift:baseline;text-anchor:start;white-space:normal;shape-padding:0;clip-rule:nonzero;display:inline;overflow:visible;visibility:visible;opacity:1;isolation:auto;mix-blend-mode:normal;color-interpolation:sRGB;color-interpolation-filters:linearRGB;solid-color:#000000;solid-opacity:1;vector-effect:none;fill:#000000;fill-opacity:1;fill-rule:nonzero;stroke:none;stroke-width:0.87077;stroke-linecap:round;stroke-linejoin:miter;stroke-miterlimit:4;stroke-dasharray:none;stroke-dashoffset:0;stroke-opacity:1;paint-order:stroke fill markers;color-rendering:auto;image-rendering:auto;shape-rendering:auto;text-rendering:auto;enable-background:accumulate" />
    <path
       d="m 323.83606,342.27771 -2.55125,6.93793 -2.55125,-6.93793 c 1.50625,1.10839 3.56708,1.102 5.1025,0 z"
       style="fill:#000000;fill-opacity:1;fill-rule:evenodd;stroke:none;stroke-width:0.32654;stroke-linejoin:round;stroke-opacity:1"
       id="path8017" />
    <path
       id="path1780"
       d="m 276.71624,317.33334 a 0.5293,0.5293 0 1 0 0,1.0586 h 29.95703 a 0.5293,0.5293 0 1 0 0,-1.0586 z"
       style="color:#000000;font-style:normal;font-variant:normal;font-weight:normal;font-stretch:normal;font-size:medium;line-height:normal;font-family:sans-serif;font-variant-ligatures:normal;font-variant-position:normal;font-variant-caps:normal;font-variant-numeric:normal;font-variant-alternates:normal;font-feature-settings:normal;text-indent:0;text-align:start;text-decoration:none;text-decoration-line:none;text-decoration-style:solid;text-decoration-color:#000000;letter-spacing:normal;word-spacing:normal;text-transform:none;writing-mode:lr-tb;direction:ltr;text-orientation:mixed;dominant-baseline:auto;baseline-shift:baseline;text-anchor:start;white-space:normal;shape-padding:0;clip-rule:nonzero;display:inline;overflow:visible;visibility:visible;opacity:1;isolation:auto;mix-blend-mode:normal;color-interpolation:sRGB;color-interpolation-filters:linearRGB;solid-color:#000000;solid-opacity:1;vector-effect:none;fill:#000000;fill-opacity:1;fill-rule:nonzero;stroke:none;stroke-width:0.87077;stroke-linecap:round;stroke-linejoin:miter;stroke-miterlimit:4;stroke-dasharray:none;stroke-dashoffset:0;stroke-opacity:1;paint-order:stroke fill markers;color-rendering:auto;image-rendering:auto;shape-rendering:auto;text-rendering:auto;enable-background:accumulate" />
    <path
       id="path7751"
       style="fill:#000000;fill-opacity:1;fill-rule:evenodd;stroke:none;stroke-width:0.32654;stroke-linejoin:round;stroke-opacity:1"
       d="m 282.25181,320.42434 -6.93793,-2.55125 6.93793,-2.55125 c -1.10839,1.50625 -1.102,3.56708 0,5.1025 z" />
    <path
       style="color:#000000;font-style:normal;font-variant:normal;font-weight:normal;font-stretch:normal;font-size:medium;line-height:normal;font-family:sans-serif;font-variant-ligatures:normal;font-variant-position:normal;font-variant-caps:normal;font-variant-numeric:normal;font-variant-alternates:normal;font-feature-settings:normal;text-indent:0;text-align:start;text-decoration:none;text-decoration-line:none;text-decoration-style:solid;text-decoration-color:#000000;letter-spacing:normal;word-spacing:normal;text-transform:none;writing-mode:lr-tb;direction:ltr;text-orientation:mixed;dominant-baseline:auto;baseline-shift:baseline;text-anchor:start;white-space:normal;shape-padding:0;clip-rule:nonzero;display:inline;overflow:visible;visibility:visible;opacity:1;isolation:auto;mix-blend-mode:normal;color-interpolation:sRGB;color-interpolation-filters:linearRGB;solid-color:#000000;solid-opacity:1;vector-effect:none;fill:#000000;fill-opacity:1;fill-rule:nonzero;stroke:none;stroke-width:0.87077;stroke-linecap:round;stroke-linejoin:miter;stroke-miterlimit:4;stroke-dasharray:none;stroke-dashoffset:0;stroke-opacity:1;paint-order:stroke fill markers;color-rendering:auto;image-rendering:auto;shape-rendering:auto;text-rendering:auto;enable-background:accumulate"
       d="m 256.29046,272.20639 a 0.52921956,0.52921956 0 0 0 -0.52148,0.53711 v 37.55469 a 0.529295,0.529295 0 1 0 1.05859,0 V 272.7435 a 0.52921956,0.52921956 0 0 0 -0.53711,-0.53711 z"
       id="path1784" />
    <path
       id="path1787"
       d="m 335.92718,272.11069 a 0.52921956,0.52921956 0 1 0 0,1.05664 h 31.95117 a 0.52921956,0.52921956 0 1 0 0,-1.05664 z"
       style="color:#000000;font-style:normal;font-variant:normal;font-weight:normal;font-stretch:normal;font-size:medium;line-height:normal;font-family:sans-serif;font-variant-ligatures:normal;font-variant-position:normal;font-variant-caps:normal;font-variant-numeric:normal;font-variant-alternates:normal;font-feature-settings:normal;text-indent:0;text-align:start;text-decoration:none;text-decoration-line:none;text-decoration-style:solid;text-decoration-color:#000000;letter-spacing:normal;word-spacing:normal;text-transform:none;writing-mode:lr-tb;direction:ltr;text-orientation:mixed;dominant-baseline:auto;baseline-shift:baseline;text-anchor:start;white-space:normal;shape-padding:0;clip-rule:nonzero;display:inline;overflow:visible;visibility:visible;opacity:1;isolation:auto;mix-blend-mode:normal;color-interpolation:sRGB;color-interpolation-filters:linearRGB;solid-color:#000000;solid-opacity:1;vector-effect:none;fill:#000000;fill-opacity:1;fill-rule:nonzero;stroke:none;stroke-width:0.87077;stroke-linecap:round;stroke-linejoin:miter;stroke-miterlimit:4;stroke-dasharray:none;stroke-dashoffset:0;stroke-opacity:1;paint-order:stroke fill markers;color-rendering:auto;image-rendering:auto;shape-rendering:auto;text-rendering:auto;enable-background:accumulate" />
    <path
       d="m 362.34295,270.07756 6.93793,2.55125 -6.93793,2.55125 c 1.10839,-1.50625 1.102,-3.56708 0,-5.1025 z"
       style="fill:#000000;fill-opacity:1;fill-rule:evenodd;stroke:none;stroke-width:0.32654;stroke-linejoin:round;stroke-opacity:1"
       id="path8003" />
    <path
       id="path2829"
       d="m 256.3178,272.11069 a 0.529295,0.529295 0 1 0 0,1.05859 h 50.24415 a 0.529295,0.529295 0 1 0 0,-1.05859 z"
       style="color:#000000;font-style:normal;font-variant:normal;font-weight:normal;font-stretch:normal;font-size:medium;line-height:normal;font-family:sans-serif;font-variant-ligatures:normal;font-variant-position:normal;font-variant-caps:normal;font-variant-numeric:normal;font-variant-alternates:normal;font-feature-settings:normal;text-indent:0;text-align:start;text-decoration:none;text-decoration-line:none;text-decoration-style:solid;text-decoration-color:#000000;letter-spacing:normal;word-spacing:normal;text-transform:none;writing-mode:lr-tb;direction:ltr;text-orientation:mixed;dominant-baseline:auto;baseline-shift:baseline;text-anchor:start;white-space:normal;shape-padding:0;clip-rule:nonzero;display:inline;overflow:visible;visibility:visible;opacity:1;isolation:auto;mix-blend-mode:normal;color-interpolation:sRGB;color-interpolation-filters:linearRGB;solid-color:#000000;solid-opacity:1;vector-effect:none;fill:#000000;fill-opacity:1;fill-rule:nonzero;stroke:none;stroke-width:0.87077;stroke-linecap:round;stroke-linejoin:miter;stroke-miterlimit:4;stroke-dasharray:none;stroke-dashoffset:0;stroke-opacity:1;paint-order:stroke fill markers;color-rendering:auto;image-rendering:auto;shape-rendering:auto;text-rendering:auto;enable-background:accumulate" />
    <path
       d="m 301.02513,270.07909 6.93793,2.55125 -6.93793,2.55125 c 1.10839,-1.50625 1.102,-3.56708 0,-5.1025 z"
       style="fill:#000000;fill-opacity:1;fill-rule:evenodd;stroke:none;stroke-width:0.32654;stroke-linejoin:round;stroke-opacity:1"
       id="path7989" />
  </g>
  <text
     xml:space="preserve"
     style="font-size:106.323px;line-height:1;font-family:Arial;-inkscape-font-specification:Arial;letter-spacing:0px;word-spacing:0px;stroke-width:0.937513"
     x="331.61316"
     y="1418.2905"
     id="text971-0"><tspan
       sodipodi:role="line"
       x="331.61316"
       y="1418.2905"
       style="text-align:center;text-anchor:middle;stroke-width:0.937513"
       id="tspan973-2">Video Editor</tspan></text>
  <text
     xml:space="preserve"
     style="font-size:106.323px;line-height:1;font-family:Arial;-inkscape-font-specification:Arial;letter-spacing:0px;word-spacing:0px;stroke-width:0.937513"
     x="1903.1665"
     y="1408.0984"
     id="text1007"><tspan
       sodipodi:role="line"
       x="1903.1665"
       y="1408.0984"
       style="text-align:center;text-anchor:middle;stroke-width:0.937513"
       id="tspan1005">Video Editing</tspan></text>
  <path
     style="fill:none;stroke:#ff0000;stroke-width:28.1254;stroke-linecap:butt;stroke-linejoin:miter;stroke-miterlimit:4;stroke-dasharray:225.003, 28.1254;stroke-dashoffset:0;stroke-opacity:1;marker-end:url(#Arrow1Send)"
     d="m 1161.107,300.50878 v 103.3974 H 376.07775 v 199.90163"
     id="path1038"
     sodipodi:nodetypes="cccc" />
  <path
     style="fill:none;stroke:#ff0000;stroke-width:28.1254;stroke-linecap:butt;stroke-linejoin:miter;stroke-miterlimit:4;stroke-dasharray:225.003, 28.1254;stroke-dashoffset:0;stroke-opacity:1;marker-end:url(#marker1804)"
     d="m 1161.8904,241.90325 v 162.00293 l 727.5889,0 v 192.49339"
     id="path1410"
     sodipodi:nodetypes="cccc" />
</svg>
