<?xml version="1.0" encoding="UTF-8" standalone="no"?>
<svg
   xmlns:dc="http://purl.org/dc/elements/1.1/"
   xmlns:cc="http://creativecommons.org/ns#"
   xmlns:rdf="http://www.w3.org/1999/02/22-rdf-syntax-ns#"
   xmlns:svg="http://www.w3.org/2000/svg"
   xmlns="http://www.w3.org/2000/svg"
   xmlns:sodipodi="http://sodipodi.sourceforge.net/DTD/sodipodi-0.dtd"
   xmlns:inkscape="http://www.inkscape.org/namespaces/inkscape"
   width="29.999994"
   height="30"
   viewBox="0 0 7.9374988 7.9374996"
   version="1.1"
   id="svg8"
   inkscape:version="1.0.2-2 (e86c870879, 2021-01-15)"
   sodipodi:docname="vse_icon_tools.svg">
  <defs
     id="defs2" />
  <sodipodi:namedview
     id="base"
     pagecolor="#ffffff"
     bordercolor="#666666"
     borderopacity="1.0"
     inkscape:pageopacity="0.0"
     inkscape:pageshadow="2"
     inkscape:zoom="12.86765"
     inkscape:cx="-9.972442"
     inkscape:cy="22.583618"
     inkscape:document-units="px"
     inkscape:current-layer="layer1"
     inkscape:document-rotation="0"
     showgrid="true"
     units="px"
     inkscape:pagecheckerboard="false"
     inkscape:window-width="3840"
     inkscape:window-height="2066"
     inkscape:window-x="2869"
     inkscape:window-y="-11"
     inkscape:window-maximized="1"
     inkscape:snap-global="false">
    <inkscape:grid
       type="xygrid"
       id="grid833"
       dotted="false"
       originx="95.31615"
       originy="-203.7953"
       units="px"
       spacingx="5.2916667"
       spacingy="5.2916667"
       empspacing="6" />
  </sodipodi:namedview>
  <metadata
     id="metadata5">
    <rdf:RDF>
      <cc:Work
         rdf:about="">
        <dc:format>image/svg+xml</dc:format>
        <dc:type
           rdf:resource="http://purl.org/dc/dcmitype/StillImage" />
        <dc:title />
      </cc:Work>
    </rdf:RDF>
  </metadata>
  <g
     inkscape:label="background"
     inkscape:groupmode="layer"
     id="layer1"
     transform="translate(95.316122,-203.79534)">
    <rect
       style="fill:#999999;stroke:#f9f9f9;stroke-width:0.13229;stroke-miterlimit:4;stroke-dasharray:none;stop-color:#000000"
       id="rect861"
       width="7.8052082"
       height="7.8052101"
       x="-95.249977"
       y="203.86148"
       ry="1.315936" />
    <path
       id="path4138"
       d="m -92.014044,205.07217 c -0.153127,-0.003 -0.304539,0.1628 -0.245513,0.31945 0.05375,0.11925 -0.170219,0.18069 -0.259849,0.23673 -0.31646,0.1211 -0.529265,0.39402 -0.770277,0.61794 -0.208519,0.21091 -0.452229,0.40205 -0.568327,0.68431 -0.08248,0.18682 -0.118147,0.39145 -0.114466,0.59181 0.0027,0.22025 0.04647,0.43826 0.111356,0.64817 0.0048,-0.10482 -0.03443,-0.21584 -2.38e-4,-0.32326 0.0679,-0.31482 0.24305,-0.62465 0.521856,-0.79689 0.122412,-0.0744 0.282979,-0.0866 0.407698,-0.0107 0.05926,0.0189 0.119589,0.0141 0.174117,-0.007 l 3.355519,3.35552 c 0.08898,0.089 0.232251,0.089 0.321236,0 l 0.208509,-0.20851 c 0.08898,-0.089 0.08898,-0.23226 0,-0.32124 l -3.350229,-3.35026 c 0.06682,-0.10756 0.03035,-0.23968 0.01939,-0.35822 0.02273,-0.16968 0.189202,-0.25832 0.306594,-0.36058 0.06586,0.0822 0.17128,0.14644 0.278472,0.10153 0.163578,-0.0475 0.242743,-0.28738 0.100326,-0.40128 -0.131714,-0.12748 -0.255236,-0.26445 -0.39242,-0.38561 -0.03293,-0.0211 -0.06838,-0.0309 -0.103709,-0.0317 z m 2.46028,0.16938 c -0.01136,2e-5 -0.02266,2.5e-4 -0.03402,6.8e-4 -0.397169,0.0152 -0.738137,0.28731 -0.840975,0.67123 -0.04198,0.15819 -0.04035,0.3248 0.0048,0.48215 l -0.861911,0.86191 0.529755,0.52977 0.818521,-0.81859 c 0.04824,0.0227 0.09842,0.0411 0.149908,0.055 0.483596,0.12958 0.980649,-0.15741 1.110263,-0.64099 0.02035,-0.0765 0.0306,-0.15526 0.03049,-0.23439 l -0.655693,0.37858 -0.453256,-0.78504 0.654998,-0.37815 c -0.06823,-0.0397 -0.141369,-0.0704 -0.217548,-0.0912 -0.07676,-0.0206 -0.155848,-0.031 -0.235218,-0.0309 z m -2.449251,2.73298 -1.031824,1.03183 c -0.023,-0.009 -0.04647,-0.0168 -0.07027,-0.0234 -0.399663,-0.10707 -0.810468,0.13009 -0.917524,0.52975 -0.01681,0.0632 -0.02531,0.12832 -0.02518,0.19371 l 0.54188,-0.31286 0.374583,0.64883 -0.541339,0.31253 c 0.05641,0.0328 0.116847,0.0582 0.17982,0.0754 0.399662,0.10709 0.810461,-0.13009 0.917524,-0.52975 0.02688,-0.1011 0.03232,-0.20672 0.01592,-0.31005 l 1.086189,-1.08619 -0.529741,-0.52974 z"
       style="fill:#ffffff;stroke:#999999;stroke-width:0.0529167;stroke-miterlimit:4;stroke-dasharray:none" />
  </g>
</svg>
